PathFileType	4	(X/Y/Z)	E:\Qualisys_Data\Carbon_Farble_Plate\Data\Amateur_Runner\S1\T3\S1T3V22_c3d.trc
DataRate	CameraRate	NumFrames	NumMarkers	Units	OrigDataRate	OrigDataStartFrame	OrigNumFrames
200.000000	200.000000	4	39	mm	200.000000	111	297
Frame#	Time	LSHO			RSHO			LICST			RICST			LASIS			LHEEL			RASIS			LTROC			RTROC			SACR			LTH1			LSK4			LTH2			LTH3			RHM5			LSK2			LTH4			RTH1			LTOE			RTH2			RTH3			RTH4			LLEP			RLEP			LSK1			LSK3			RSK1			LHM5			RSK2			LFT1			RSK3			RSK4			LLME			RLME			RTOE			RHEEL			RFT1			RFT2			LFT2			
		X1	Y1	Z1	X2	Y2	Z2	X3	Y3	Z3	X4	Y4	Z4	X5	Y5	Z5	X6	Y6	Z6	X7	Y7	Z7	X8	Y8	Z8	X9	Y9	Z9	X10	Y10	Z10	X11	Y11	Z11	X12	Y12	Z12	X13	Y13	Z13	X14	Y14	Z14	X15	Y15	Z15	X16	Y16	Z16	X17	Y17	Z17	X18	Y18	Z18	X19	Y19	Z19	X20	Y20	Z20	X21	Y21	Z21	X22	Y22	Z22	X23	Y23	Z23	X24	Y24	Z24	X25	Y25	Z25	X26	Y26	Z26	X27	Y27	Z27	X28	Y28	Z28	X29	Y29	Z29	X30	Y30	Z30	X31	Y31	Z31	X32	Y32	Z32	X33	Y33	Z33	X34	Y34	Z34	X35	Y35	Z35	X36	Y36	Z36	X37	Y37	Z37	X38	Y38	Z38	X39	Y39	Z39	

112	0.555	-813.6943359375	1455.827026367188	-552.2413330078125	-857.3406372070312	1475.2978515625	-223.0413665771484	-882.2062377929688	1004.78369140625	-511.706787109375	-877.1639404296875	1023.272583007812	-209.1229553222656	-837.6253051757812	966.5438842773438	-486.3482666015625	-1245.922729492188	124.3410186767578	-374.4079895019531	-836.8677978515625	977.402587890625	-217.6654510498047	-955.756591796875	888.0001831054688	-523.5703125	-932.8689575195312	882.7591552734375	-185.9893341064453	-996.28759765625	1030.28662109375	-354.0222778320312	-837.55126953125	724.2913818359375	-498.1443176269531	-1141.352172851562	267.5578002929688	-416.45166015625	-919.8489990234376	723.386962890625	-522.2210083007812	-845.6228637695312	622.431884765625	-478.5230407714844	-941.0809936523438	268.0013122558594	-199.2088165283203	-1077.604736328125	337.8353881835938	-459.0896911621094	-930.0783081054688	626.6837768554688	-495.3664245605469	-754.9010620117188	840.4711303710938	-202.2458648681641	-1004.868408203125	63.38958740234375	-367.01953125	-811.6000366210938	788.306884765625	-176.4523162841797	-685.7911376953125	765.44482421875	-200.2901458740234	-745.7756958007812	712.3504638671875	-183.7726440429688	-913.622314453125	475.5204772949219	-451.5475769042969	-626.0814819335938	596.6473388671875	-214.6029510498047	-1014.437438964844	286.2370300292969	-439.2218627929688	-1082.714721679688	212.5056304931641	-429.1278991699219	-766.2761840820312	490.2408447265625	-207.6499481201172	-1073.18212890625	58.86938858032227	-435.5066223144531	-807.678955078125	561.1240844726562	-217.9380798339844	-1243.551879882812	95.53648376464844	-344.0947875976562	-850.8689575195312	437.2597961425781	-221.977294921875	-890.1466064453125	506.4296264648438	-241.2420501708984	-1178.9296875	138.1716613769531	-421.418701171875	-979.0707397460938	404.25634765625	-225.7500457763672	-896.187255859375	228.0874786376953	-266.7004089355469	-1052.466064453125	425.0414733886719	-272.2141418457031	-1068.400390625	397.2226867675781	-300.5985412597656	-1071.543212890625	409.0865783691406	-249.9580841064453	-1248.934326171875	91.41268157958984	-395.5035400390625
113	0.56	-790.7850952148438	1460.204956054688	-550.9371337890625	-838.6064453125	1478.627319335938	-222.5393524169922	-859.6408081054688	1007.414245605469	-511.9027709960938	-855.5502319335938	1027.508422851562	-210.0570068359375	-815.3553466796875	968.7608032226562	-485.8724670410156	-1241.984741210938	131.6531219482422	-375.1354675292969	-815.1060791015625	981.6967163085938	-218.2069702148438	-934.148681640625	890.741455078125	-523.8004760742188	-909.69482421875	887.5269165039062	-185.7662658691406	-974.0877075195312	1033.211181640625	-354.9717712402344	-820.158935546875	725.2369384765625	-495.9617004394531	-1134.92529296875	273.9321899414062	-415.6277770996094	-901.6366577148438	726.5421142578125	-522.1470947265625	-831.0781860351562	623.4594116210938	-476.5675659179688	-898.9559326171875	261.6674499511719	-198.9588317871094	-1071.455688476562	343.4336547851562	-457.3259582519531	-914.9822387695312	630.1498413085938	-494.5923767089844	-732.5466918945312	847.418212890625	-202.9826965332031	-1003.228942871094	62.85914993286133	-366.6604614257812	-788.331787109375	793.788330078125	-177.7165222167969	-662.2792358398438	773.30859375	-201.4030914306641	-721.80712890625	719.1528930664062	-184.6307983398438	-904.6972045898438	478.84033203125	-450.7355651855469	-600.0676879882812	605.102783203125	-215.9891052246094	-1008.396118164062	291.3277893066406	-439.5133972167969	-1077.940063476562	218.2326812744141	-428.9188537597656	-735.228271484375	492.1725158691406	-207.8012084960938	-1071.83349609375	59.55840682983398	-435.0796813964844	-780.9107666015625	560.6245727539062	-217.638916015625	-1240.304077148438	102.3332901000977	-344.4749145507812	-817.165283203125	435.1280212402344	-222.5785217285156	-860.3115844726562	501.9746704101562	-241.1865386962891	-1174.328125	144.7155303955078	-421.6907043457031	-943.839599609375	396.3563537597656	-224.4478759765625	-852.0891723632812	224.0759582519531	-265.4798278808594	-1018.508972167969	412.2699890136719	-272.1792297363281	-1033.00537109375	383.7032470703125	-300.4804992675781	-1036.533935546875	395.4668579101562	-249.7415618896484	-1245.392578125	97.48162078857422	-396.321044921875
114	0.565	-768.302978515625	1464.980224609375	-549.682373046875	-819.6282348632812	1482.202026367188	-222.0439453125	-837.1727905273438	1010.379150390625	-512.5652465820312	-833.3035888671875	1031.935180664062	-210.9936218261719	-793.0142822265625	971.079833984375	-486.3541259765625	-1237.284423828125	138.7568206787109	-375.0700073242188	-793.2429809570312	986.1234130859376	-219.060302734375	-912.4058837890624	893.8632202148438	-523.9486694335938	-886.36669921875	891.7813720703125	-185.0109405517578	-952.4966430664062	1036.8564453125	-356.3337707519531	-802.3221435546875	726.6910400390625	-493.7549438476562	-1127.80078125	280.597412109375	-414.48486328125	-883.4893188476562	730.0493774414062	-521.4417114257812	-815.8321533203125	625.5484619140625	-474.2671203613281	-855.8402709960938	254.4007415771484	-199.2490844726562	-1064.0703125	349.9471435546875	-456.3827514648438	-899.8170776367188	634.4890747070312	-493.5275573730469	-709.8673706054688	854.101806640625	-204.1563873291016	-1001.501770019531	62.65536499023438	-366.7681579589844	-764.758544921875	799.9793090820312	-178.3001251220703	-638.5156860351562	780.6339721679688	-202.7822113037109	-697.1713256835938	726.125732421875	-186.1377868652344	-895.2487182617188	482.9872436523438	-450.4612426757812	-574.3248291015625	612.9483642578125	-217.0622711181641	-1001.375183105469	297.3743591308594	-439.8007507324219	-1071.901733398438	224.448486328125	-429.4740295410156	-704.6890869140625	492.8838500976562	-209.9004516601562	-1069.992797851562	60.73681259155273	-434.9776916503906	-752.6670532226562	558.4886474609375	-219.4515991210938	-1236.904907226562	109.3798446655273	-344.8857116699219	-783.8589477539062	431.8244934082031	-223.7562866210938	-830.2144165039062	496.8110961914062	-241.261474609375	-1169.234375	151.6349029541016	-421.8296813964844	-908.4737548828124	387.5683898925781	-223.9518127441406	-807.9388427734375	219.6991424560547	-266.2655944824219	-984.0501708984376	399.2687377929688	-272.6226806640625	-997.0231323242188	370.0563354492188	-300.718994140625	-1001.256164550781	381.715087890625	-249.8354339599609	-1242.392700195312	105.0597763061523	-396.2192687988281
115	0.57	-745.9307250976562	1469.984008789062	-548.4196166992188	-800.6566162109375	1485.871948242188	-221.6366729736328	-813.8641967773438	1012.2958984375	-513.730224609375	-811.40673828125	1036.52392578125	-211.8729858398438	-770.3569946289062	973.3576049804688	-486.2687377929688	-1232.631103515625	145.9385070800781	-375.3404541015625	-770.8695068359375	990.9132080078124	-220.0852355957031	-890.408447265625	897.1510009765625	-524.0713500976562	-863.2354736328125	896.9788208007812	-184.9005432128906	-930.23046875	1040.315307617188	-356.984619140625	-784.658447265625	728.7386474609375	-491.3805847167969	-1119.92822265625	288.1038208007812	-413.8484802246094	-865.2792358398438	734.30908203125	-521.9202270507812	-801.0232543945312	628.0639038085938	-471.6845092773438	-813.5899658203125	248.4874420166016	-199.5376739501953	-1055.776245117188	357.1449584960938	-455.7414245605469	-884.07275390625	638.717529296875	-492.4382629394531	-687.020751953125	860.23046875	-205.8013763427734	-999.724853515625	62.64927673339844	-366.912353515625	-741.1372680664062	806.5481567382812	-178.7367095947266	-614.9043579101562	787.7615356445312	-204.5117645263672	-672.9780883789062	732.6370239257812	-187.3339691162109	-884.6437377929688	487.3847045898438	-450.2340393066406	-549.5669555664062	620.2929077148438	-218.0910949707031	-994.1063842773438	303.6675109863281	-440.6756591796875	-1064.572265625	231.4064331054688	-430.2050476074219	-674.83837890625	493.7854614257812	-210.1193542480469	-1068.706787109375	62.29198455810547	-434.50634765625	-725.9588623046875	556.7420043945312	-219.2162475585938	-1232.700805664062	116.2400054931641	-344.8527221679688	-750.3319702148438	428.1471252441406	-223.4644317626953	-800.0721435546875	491.32080078125	-242.3231201171875	-1162.841918945312	158.8000335693359	-422.0704345703125	-873.0198364257812	378.1050720214844	-224.5374145507812	-764.2750854492188	216.0157318115234	-266.8031921386719	-949.1255493164062	386.1652221679688	-273.1889953613281	-960.7667236328124	356.4386901855469	-300.8176879882812	-965.3140869140624	367.9889831542969	-250.2299957275391	-1238.157470703125	112.5323638916016	-396.4660034179688
